# xmcd
#
# Track frame offsets: 
#        150
#        21187
#        42900
#
# Disc length: 864 seconds
#
# Revision: 1
# Processed by: cddbd v1.5.1PL2 Copyright (c) Steve Scherf et al.
# Submitted via: ExactAudioCopy v0.95b3
#
DISCID=1c035e03
DTITLE=Akiko - Sweet Christmas (Japan CD Single)
DYEAR=1995
DGENRE=Christmas/Holiday
TTITLE0=Sweet Christmas
TTITLE1=Sweet Christmas (Jingle Jungle Mix)
TTITLE2=Sweet Christmas (Strictly Raggae Mix)
EXTD=YEAR: 1995
EXTT0=
EXTT1=
EXTT2=
PLAYORDER=
